<svg xmlns="http://www.w3.org/2000/svg" viewBox="0 0 70 97">
  <path d="M54.84,0h-.38A3.52,3.52,0,0,0,53,1.59,15.69,15.69,0,0,0,51.71,5a1.64,1.64,0,0,1-1.48,1.34A7.34,7.34,0,0,0,45,10.12a26.58,26.58,0,0,0-1.84,3.94c-1.43,3.68-2.52,7.48-3.85,11.2C38.67,27,38.64,27,36.74,27c-2.27,0-2.11-.35-2.14,2.15,0,.79.24,1.19,1.08,1.15.26,0,.65-.13.75.22s-.24.49-.43.69a9,9,0,0,1-4.34,2.43c-1.9.51-3.83.91-5.69,1.53-4.74,1.59-9.14,3.81-12.55,7.57a27.76,27.76,0,0,0-4.74,7.84C5,59.22,3.22,68.32,1.84,77.51c-.65,4.31-1.11,8.63-1.46,13C.2,92.65,0,94.82,0,97H33.33a2.07,2.07,0,0,0-.23-1.28,5,5,0,0,0-3.83-3.07c-.69-.16-.78-.37-.35-.91a10.24,10.24,0,0,0,1.59-3.11c1.63-4.81,2.26-9.82,3.05-14.8A30.05,30.05,0,0,1,37,63a21.76,21.76,0,0,1,5.59-6.37c.83-.63.86-.63,1,.44.1.72.12,1.44.16,2.17a92.51,92.51,0,0,1-.17,14.17,61.61,61.61,0,0,0-.15,11A75.11,75.11,0,0,0,45.7,97H59a5.43,5.43,0,0,0-4.24-4.44,9,9,0,0,0-3.77.2c-.6.14-.85,0-.9-.65a56.62,56.62,0,0,1,1-15.82,178.45,178.45,0,0,0,3.07-18.18,17.73,17.73,0,0,1,2.27-7c1.19-2.12,2.23-4.32,3.41-6.46a5.87,5.87,0,0,0,.41-5.19c-.27-.71-.53-1.42-.86-2.1-1-2-2-3.89-2.91-5.85-.49-1-.39-1.12.71-1.15,1.63,0,1.63,0,1.66-1.64,0-.22,0-.44,0-.66,0-.69-.26-1.07-1-1-.5,0-1,0-1.52,0-.69,0-.89-.29-.72-1a6.25,6.25,0,0,1,5.14-4.44,22.25,22.25,0,0,1,6.61.43c.65.12,1,0,1.25-.64.4-1,.85-2,1.29-3a1,1,0,0,0-.09-1.14C66.6,13.22,63.13,9.43,58.4,7a1.51,1.51,0,0,1-.89-1.13,19.14,19.14,0,0,0-1.27-4.16A3.49,3.49,0,0,0,54.84,0Z" fill="#000000"/>
</svg>
