<svg>

<!-- Главное лого -->
<symbol class="main-logo" id="main-logo" viewBox="0 0 201.99 59.48">
  <defs>
    <style>
      .cls-1 {
        fill: #fdc305;
      }

      .cls-2 {
        fill: #f06351;
      }

      .cls-3 {
        fill: #e55645;
      }

      .cls-4 {
        fill: #111;
      }

      .cls-5 {
        fill: #444;
      }
    </style>
  </defs>
  
  <!-- Тело лого -->
  <g class="main-logo__body">
    <path class="cls-1" d="M59.88,24A25.61,25.61,0,1,0,32.51,59.2c-.58-2.09-1.16-4.4-1.69-6.86a32.69,32.69,0,0,0,4.77,2.56h0s.12,2.16.28,4.57A25.41,25.41,0,0,0,41.19,59a2,2,0,0,1,0-.76c.29-1.86,1.09-5.24,1.25-7.41a15.25,15.25,0,0,0,2.9-3.71v0l-.05.43c-.55,4.26-1.7,8.81-2.4,10.07a5.78,5.78,0,0,1-.83,1.15A25.63,25.63,0,0,0,59.88,24Zm-1.48,3.79c-.43.43-1.35.72-1.49-.58S56.72,25,56.72,25s-1.93-3.42-2.65-3.47-5.83,3.47-7.18,5c-1.16,1.29-1.4,1.2-1.4,3.47,0,1.71.22,8.17.1,13.11h0l-8.15,2.17A64.75,64.75,0,0,1,29.64,47l-1-5.83H28.5L25.93,28s-3.81-1.45-5.2-1.83a3.74,3.74,0,0,0-4,.63,5.08,5.08,0,0,0-1.73,3.86,6.89,6.89,0,0,1,.48,1.45c0,.48-1.2.43-2,.43s-.92-1.45-.29-3.13A23.65,23.65,0,0,1,15,25.66a11.9,11.9,0,0,1,2.07-2.89s.14-.34,1.25-.24,7.28.43,7.28.43l.05-2.27a144.23,144.23,0,0,1,20.24-1.34q0,.91-.06,1.83a22.64,22.64,0,0,1,8.14-2,.91.91,0,0,1,.77.39c.34.43,2.41,3,2.65,3.37a28.1,28.1,0,0,1,1.83,3A6.27,6.27,0,0,1,58.41,27.78Z"/>
    <path class="cls-2" d="M56.46,21.67c.47.6.89,1.13,1,1.29a28.1,28.1,0,0,1,1.83,3,6.27,6.27,0,0,1-.87,1.78c-.43.43-1.35.72-1.49-.58S56.72,25,56.72,25s-1.93-3.42-2.65-3.47-5.83,3.47-7.18,5c-1.16,1.29-1.4,1.2-1.4,3.47,0,1.5.17,6.65.13,11.23,1.81.21,4.47.71,5.27,1.88,0,0-.29-7.18,7.81-3.42,0,0,.29-9.78,11.47-7.28A43.78,43.78,0,0,0,56.46,21.67Z"/>
    <path class="cls-2" d="M45.93,19.35A90.51,90.51,0,0,0,44.53,2.82s-.14-1.3-.87-.24a14.23,14.23,0,0,0-1.2,4,70.62,70.62,0,0,0-12.82.34c-.82-2.75-2.22-4-2.89-3.66S26,6.53,26,6.53l-.33,14.16A144.23,144.23,0,0,1,45.93,19.35Z"/>
    <path class="cls-3" d="M45.35,47.12c.13-1.06.2-2.49.24-4.06l-8.15,2.17A64.75,64.75,0,0,1,29.64,47l1.11,5,.07.33a32.69,32.69,0,0,0,4.77,2.56,42.65,42.65,0,0,0,6.87-4.13v.06A15.25,15.25,0,0,0,45.35,47.12Z"/>
    <path d="M32,16.22c0-.09,1,.68,1.41.92s.61.42.61.59-.27.34-.63.34-.92-.12-1-.27l.94,0h.29A8.28,8.28,0,0,1,32,16.22Z"/>
    <path d="M39.5,16.33s-1.05,1.28-1.09,1.34-.17.34.19.29a8,8,0,0,0,1.22-.28c.11-.06.07-.2-.12-.18s-.68,0-1,.11l.84-1.27S39.58,16.22,39.5,16.33Z"/>
    <path d="M36.36,22.44a2.31,2.31,0,0,0,1.09-1c.28-.66,0-.92-.44-1a2.45,2.45,0,0,0-1.74.34c-.4.37-.34.73-.05,1A5,5,0,0,0,36.36,22.44Z"/>
    <path class="cls-2" d="M35.95,23.7a2,2,0,0,1-.46.6,1.73,1.73,0,0,1-1,.39A2.17,2.17,0,0,1,33,24.24a2.09,2.09,0,0,1-.53-.44,1,1,0,0,0-.36-.25s.75,4.12,2.58,4.77,2.15-.75,2.21-1.14a5.62,5.62,0,0,0-.82-3.24C36.07,23.63,36,23.83,35.95,23.7Z"/>
    <path d="M34.3,24.84h0a3.47,3.47,0,0,1-2.34-1.42.14.14,0,0,1,.23-.17,3.24,3.24,0,0,0,2.11,1.31h0a2.1,2.1,0,0,0,1.63-1l.14-.19.1.21s.37.76,1,.8,1.06-.41,1.62-1.28a.14.14,0,1,1,.24.16c-.64,1-1.27,1.45-1.88,1.41A1.55,1.55,0,0,1,36,23.9,2.26,2.26,0,0,1,34.3,24.84Z"/>
    <circle class="cls-1" cx="36.26" cy="34.55" r="3.75" transform="translate(-10.52 16.65) rotate(-22.67)"/>
    <path class="cls-4" d="M41.23,31.5,38.1,32.81l1.15-5.64-7.5,9.76,3.13-1.31-1.15,5.64Zm-7.39,3.82L38,29.92l-.81,4,2-.82L35,38.52l.81-4Z"/>
    <circle class="cls-4" cx="32.44" cy="32.74" r="1.12" transform="translate(-10.11 15.03) rotate(-22.67)"/>
    <circle class="cls-4" cx="38.96" cy="37.13" r="0.79" transform="translate(-11.3 17.89) rotate(-22.67)"/>
    <circle class="cls-4" cx="39.92" cy="35.4" r="0.35" transform="translate(-10.56 18.13) rotate(-22.67)"/>
    <path class="cls-2" d="M45.88,21.16a58.38,58.38,0,0,0-5.08,5.21,31.76,31.76,0,0,1-5.31,4.89c-.22-.53-1.63-1.51-1.63-1.51s-3.14-2.15-5.2-3.84a33.24,33.24,0,0,1-3.14-3l-2-.11a22.64,22.64,0,0,0,12,8.84c.87-.14,3.29-1.87,5.1-3.28a57.67,57.67,0,0,0,6-5.92,6.09,6.09,0,0,0,1.14-2C46.6,20.83,45.88,21.16,45.88,21.16Z"/>
    <path class="cls-2" d="M25.93,28s-3.81-1.45-5.2-1.83a3.74,3.74,0,0,0-4,.63,5.08,5.08,0,0,0-1.73,3.86,6.89,6.89,0,0,1,.48,1.45c0,.48-1.2.43-2,.43s-.92-1.45-.29-3.13A23.65,23.65,0,0,1,15,25.66c-5.45,2.84-15,9.4-15,9.4a45.9,45.9,0,0,1,8.19.24c5.25.53,5,4.67,5,4.67a38.14,38.14,0,0,1,5.64-1.11c2.12-.14,2.26,2.12,2.26,2.12l.53,3.86a18.79,18.79,0,0,1,2.65-2.36,6.07,6.07,0,0,1,4.39-1.3h0Z"/>
  </g>

  <!-- Лучи вокруг -->
  <g class="main-logo__rays">
    <polygon class="cls-1" points="65.22 3.5 56.76 12.94 55.54 10.95 63.69 0 65.22 3.5"/>
    <polygon class="cls-1" points="62.65 17.26 68.19 13.15 67.41 9.41 62.01 14.22 62.65 17.26"/>
    <polygon class="cls-1" points="59.92 49.37 66.05 52.55 69.06 50.21 62.37 47.46 59.92 49.37"/>
    <polygon class="cls-1" points="1.95 5.97 5.02 2.61 14.31 11.61 13.09 13.89 1.95 5.97"/>
    <polygon class="cls-1" points="7.38 16.28 2.68 13.15 0.28 17.02 5.43 19.42 7.38 16.28"/>
    <polygon class="cls-1" points="13.91 52.55 9.36 55.9 12.16 59.48 16.18 55.46 13.91 52.55"/>
  </g>

  <!-- Текстовая часть -->
  <g class="main-logo__text">
    <path class="cls-4" d="M85.66,42a8.32,8.32,0,0,1-1.4-5.19V29.34a8.41,8.41,0,0,1,1.38-5.24q1.39-1.77,4.75-1.77,3.21,0,4.54,1.57a6.74,6.74,0,0,1,1.33,4.49v1.76H92.13V28.2A10,10,0,0,0,92,26.7a1.67,1.67,0,0,0-.47-.94,1.57,1.57,0,0,0-1.15-.38,1.47,1.47,0,0,0-1.5.75,5.59,5.59,0,0,0-.34,2.2v9.53a4.83,4.83,0,0,0,.39,2.2,1.49,1.49,0,0,0,1.45.72,1.35,1.35,0,0,0,1.4-.74,5.91,5.91,0,0,0,.31-2.19v-2h4.14v1.73A7.25,7.25,0,0,1,95,42.19q-1.32,1.64-4.56,1.64T85.66,42Z"/>
    <path class="cls-4" d="M101.91,22.58h4.74l4,21h-3.93L106,38.94h-3.31l-.8,4.61h-4Zm3.65,13.72-1.27-8.44-1.24,8.44Z"/>
    <path class="cls-4" d="M113.72,25.74h-3.24V22.58H121.2v3.16H118V43.55h-4.3Z"/>
    <path class="cls-5" d="M129.61,22.58h8.13v2.17h-5.2v6.94h4.22v2.07h-4.22v7.69h5.26v2.1h-8.18Z"/>
    <path class="cls-5" d="M140.15,22.58h2l6,13.93V22.58h2.43v21h-1.86l-6-14.32V43.55h-2.48Z"/>
    <path class="cls-5" d="M153.82,22.58h8.13v2.17h-5.2v6.94H161v2.07h-4.22v7.69H162v2.1h-8.18Z"/>
    <path class="cls-5" d="M164.35,22.58h4.22a7,7,0,0,1,4.67,1.31,5.4,5.4,0,0,1,1.49,4.26q0,4-2.59,4.89l3,10.51H172.3l-2.74-9.84h-2.28v9.84h-2.92Zm4,9a3.94,3.94,0,0,0,2.7-.75,3.61,3.61,0,0,0,.82-2.72,5.82,5.82,0,0,0-.29-2,2,2,0,0,0-1-1.09,4.83,4.83,0,0,0-2-.35h-1.3v6.94Z"/>
    <path class="cls-5" d="M178.67,42a9.28,9.28,0,0,1-1.27-5.35v-7a13.32,13.32,0,0,1,.5-4,4.48,4.48,0,0,1,1.74-2.41A5.91,5.91,0,0,1,183,22.4a5.27,5.27,0,0,1,4.18,1.47,7,7,0,0,1,1.28,4.63v.78h-2.74v-.65a11.41,11.41,0,0,0-.18-2.32,2,2,0,0,0-.76-1.23,3,3,0,0,0-1.72-.41,2.57,2.57,0,0,0-1.81.56,2.6,2.6,0,0,0-.76,1.49,14.45,14.45,0,0,0-.17,2.49V37a7.55,7.55,0,0,0,.58,3.46,2.33,2.33,0,0,0,2.24,1,2.31,2.31,0,0,0,2.24-1.14,8.16,8.16,0,0,0,.61-3.65V35.24h-2.67V33.17h5.31V43.55H186.8l-.29-2.41a3.69,3.69,0,0,1-3.73,2.67A4.68,4.68,0,0,1,178.67,42Z"/>
    <path class="cls-5" d="M194.69,36.15l-4.53-13.56h2.72l3.21,10.12,3.16-10.12H202l-4.5,13.56v7.4h-2.8Z"/>
  </g>
</symbol>


<!-- Лого-mini -->
<symbol id="logo-mini" viewBox="0 0 33.32 37.61">
  <defs>
    <style>
      .cls-1 {
        fill: #fdc305;
      }

      .cls-2 {
        fill: #f06351;
      }
    </style>
  </defs>
  <g>
    <path class="cls-1" d="M6.07,20.72l.05-2.27a143.66,143.66,0,0,1,20.16-1.33q0,.91-.06,1.82a25.45,25.45,0,0,1,6-1.81A16.67,16.67,0,0,0,.19,20.39C2.36,20.52,6.07,20.72,6.07,20.72Z"/>
    <path class="cls-1" d="M27.24,24.23c-1.16,1.28-1.39,1.2-1.39,3.46,0,.91,0,4.9,0,9.17A16.68,16.68,0,0,0,33,19.9,33.68,33.68,0,0,0,27.24,24.23Z"/>
    <path class="cls-1" d="M6.36,25.72s-3.79-1.44-5.18-1.82A10.59,10.59,0,0,0,0,23.61a16.66,16.66,0,0,0,8.68,14Z"/>
    <path class="cls-2" d="M26.29,17.12A90.16,90.16,0,0,0,24.89.65S24.75-.64,24,.41a14.17,14.17,0,0,0-1.2,3.94,70.35,70.35,0,0,0-12.77.34C9.24,2,7.85.75,7.18,1s-.72,3.31-.72,3.31l-.33,14.1A143.66,143.66,0,0,1,26.29,17.12Z"/>
    <path d="M12.41,14c0-.09,1,.68,1.41.92s.61.42.61.59-.26.34-.62.34-.91-.12-1-.26l.94,0h.29A8.24,8.24,0,0,1,12.41,14Z"/>
    <path d="M19.89,14.11s-1,1.27-1.09,1.33-.17.34.19.29a7.93,7.93,0,0,0,1.22-.28c.11-.06.07-.2-.12-.18s-.68,0-1,.11l.84-1.26S20,14,19.89,14.11Z"/>
    <path d="M16.75,20.2a2.3,2.3,0,0,0,1.09-1c.28-.66,0-.91-.44-1a2.44,2.44,0,0,0-1.74.34c-.4.37-.34.73-.05,1A5,5,0,0,0,16.75,20.2Z"/>
    <path class="cls-2" d="M16.35,21.45a2,2,0,0,1-.46.59,1.72,1.72,0,0,1-1,.39A2.16,2.16,0,0,1,13.42,22a2.08,2.08,0,0,1-.53-.44.94.94,0,0,0-.36-.25s.75,4.1,2.57,4.75,2.14-.75,2.2-1.13a5.59,5.59,0,0,0-.82-3.22C16.46,21.38,16.45,21.58,16.35,21.45Z"/>
    <path d="M14.71,22.59h0a3.46,3.46,0,0,1-2.33-1.42.14.14,0,0,1,.23-.17,3.23,3.23,0,0,0,2.1,1.3h0a2.09,2.09,0,0,0,1.63-1l.14-.19.1.21s.37.76,1,.79,1.05-.41,1.62-1.28a.14.14,0,1,1,.24.16c-.63,1-1.26,1.45-1.88,1.41a1.55,1.55,0,0,1-1.12-.76A2.25,2.25,0,0,1,14.71,22.59Z"/>
    <path class="cls-2" d="M26.24,18.92a58.15,58.15,0,0,0-5.06,5.19A31.64,31.64,0,0,1,15.88,29c-.22-.53-1.62-1.51-1.62-1.51s-3.13-2.14-5.18-3.82a33.11,33.11,0,0,1-3.13-3l-2-.11a22.55,22.55,0,0,0,12,8.8c.86-.14,3.28-1.86,5.08-3.26a57.44,57.44,0,0,0,5.94-5.89,6.07,6.07,0,0,0,1.14-2C27,18.6,26.24,18.92,26.24,18.92Z"/>
  </g>
</symbol>



</svg>